<svg width="1026" height="620" viewBox="0 0 1026 620" fill="none" xmlns="http://www.w3.org/2000/svg">
<path d="M472.317 432.433C472.317 458.229 466.466 482.032 454.765 503.839C443.063 525.647 426.973 544.529 406.495 560.486C386.282 576.176 362.613 588.41 335.486 597.186C308.359 606.228 279.37 610.749 248.52 610.749C217.67 610.749 188.681 606.228 161.554 597.186C134.427 588.41 110.625 576.176 90.1465 560.486C69.9342 544.529 53.9772 525.647 42.2754 503.839C30.5736 482.032 24.7227 458.229 24.7227 432.433C24.7227 417.54 26.7173 403.046 30.7065 388.951C34.6958 374.589 40.4137 361.159 47.8604 348.66C55.5729 336.16 64.7482 324.725 75.3862 314.353C86.0243 303.715 97.992 294.673 111.29 287.226C103.045 280.046 95.5985 271.801 88.9497 262.493C82.5669 253.185 76.9819 243.345 72.1948 232.973C67.6737 222.602 64.2163 211.964 61.8228 201.06C59.4292 189.89 58.2324 178.853 58.2324 167.95C58.2324 145.61 63.1525 124.734 72.9927 105.319C83.0988 85.6395 96.7952 68.486 114.082 53.859C131.369 38.966 151.581 27.2644 174.719 18.7542C197.856 10.2439 222.457 5.98877 248.52 5.98877C274.849 5.98877 299.583 10.2439 322.72 18.7542C345.858 27.2644 366.07 38.966 383.357 53.859C400.91 68.486 414.606 85.6395 424.446 105.319C434.552 124.734 439.605 145.61 439.605 167.95C439.605 178.853 438.276 189.89 435.616 201.06C433.223 211.964 429.765 222.735 425.244 233.372C420.723 243.744 415.138 253.584 408.489 262.892C402.106 272.2 394.793 280.578 386.548 288.024C399.58 295.471 411.415 304.38 422.053 314.752C432.691 325.124 441.733 336.559 449.18 349.059C456.626 361.558 462.344 374.855 466.333 388.951C470.323 403.046 472.317 417.54 472.317 432.433ZM327.507 180.316C327.507 171.008 325.38 162.365 321.125 154.386C317.135 146.142 311.55 138.962 304.37 132.845C297.455 126.728 289.21 121.941 279.636 118.484C270.062 115.027 259.956 113.298 249.318 113.298C238.414 113.298 228.175 115.027 218.601 118.484C209.026 121.941 200.649 126.728 193.468 132.845C186.554 138.962 180.969 146.142 176.713 154.386C172.724 162.365 170.729 171.008 170.729 180.316C170.729 189.624 172.724 198.268 176.713 206.246C180.969 214.224 186.554 221.139 193.468 226.99C200.649 232.84 209.026 237.494 218.601 240.952C228.175 244.409 238.414 246.138 249.318 246.138C259.956 246.138 270.062 244.409 279.636 240.952C289.21 237.494 297.455 232.84 304.37 226.99C311.55 221.139 317.135 214.224 321.125 206.246C325.38 198.268 327.507 189.624 327.507 180.316ZM358.624 429.241C358.624 416.476 355.698 404.641 349.847 393.738C344.262 382.568 336.417 372.861 326.311 364.617C316.47 356.372 304.769 349.857 291.205 345.07C277.908 340.282 263.679 337.889 248.52 337.889C233.361 337.889 219.132 340.282 205.835 345.07C192.537 349.857 180.836 356.372 170.729 364.617C160.889 372.861 153.044 382.568 147.193 393.738C141.608 404.641 138.815 416.476 138.815 429.241C138.815 442.007 141.608 453.708 147.193 464.346C153.044 474.984 160.889 484.159 170.729 491.872C180.836 499.584 192.537 505.701 205.835 510.222C219.132 514.477 233.361 516.604 248.52 516.604C263.679 516.604 277.908 514.477 291.205 510.222C304.769 505.701 316.47 499.584 326.311 491.872C336.417 484.159 344.262 474.984 349.847 464.346C355.698 453.708 358.624 442.007 358.624 429.241Z" fill="white"/>
<path d="M883.211 309.965C883.211 246.404 872.573 199.198 851.297 168.349C830.287 137.499 800.899 122.074 763.134 122.074C725.635 122.074 696.514 137.366 675.77 167.95C655.025 198.533 644.653 245.872 644.653 309.965C644.653 373.526 655.025 420.731 675.77 451.581C696.514 482.43 725.635 497.855 763.134 497.855C782.017 497.855 798.905 494.132 813.798 486.686C828.691 478.973 841.191 467.405 851.297 451.98C861.669 436.555 869.514 417.141 874.833 393.738C880.418 370.068 883.211 342.144 883.211 309.965ZM992.118 309.965C992.118 364.218 986.134 410.093 974.166 447.592C962.198 485.09 945.842 515.408 925.098 538.545C904.354 561.682 880.02 578.437 852.095 588.809C824.436 598.915 794.782 603.968 763.134 603.968C731.486 603.968 701.7 598.782 673.775 588.41C646.116 577.772 621.915 560.884 601.17 537.747C580.692 514.344 564.469 484.026 552.501 446.794C540.534 409.295 534.55 363.686 534.55 309.965C534.55 255.712 540.534 209.969 552.501 172.737C564.469 135.238 580.692 104.921 601.17 81.7833C621.915 58.646 646.116 41.8914 673.775 31.5196C701.7 21.1477 731.486 15.9617 763.134 15.9617C794.782 15.9617 824.436 21.2806 852.095 31.9185C880.02 42.2904 904.354 59.1779 925.098 82.5811C945.842 105.984 962.198 136.302 974.166 173.535C986.134 210.767 992.118 256.244 992.118 309.965Z" fill="white"/>
<path fill-rule="evenodd" clip-rule="evenodd" d="M248.52 10.9886C223.012 10.9886 198.999 15.1511 176.445 23.4466C153.824 31.7667 134.143 43.1756 117.346 57.6469L117.329 57.6614L117.312 57.6758C100.519 71.8845 87.2436 88.517 77.4463 107.592C67.975 126.283 63.2324 146.379 63.2324 167.95C63.2324 178.481 64.3877 189.163 66.7094 200.001C69.0284 210.561 72.3764 220.869 76.7571 230.927C81.416 241.014 86.8456 250.579 93.0461 259.626C99.4713 268.615 106.648 276.553 114.573 283.456L119.928 288.119L113.733 291.589C100.83 298.814 89.231 307.579 78.9218 317.888L78.8994 317.911L78.8767 317.933C68.5376 328.013 59.6267 339.118 52.1357 351.252C44.932 363.351 39.3937 376.358 35.5241 390.289L35.5209 390.3L35.5176 390.312C31.6558 403.957 29.7227 417.992 29.7227 432.433C29.7227 457.441 35.3862 480.426 46.6812 501.475C58.0402 522.644 73.5338 540.994 93.2168 556.539C113.191 571.838 136.465 583.814 163.093 592.429L163.114 592.436L163.135 592.443C189.714 601.302 218.165 605.749 248.52 605.749C278.875 605.749 307.326 601.302 333.905 592.443L333.926 592.436L333.947 592.429C360.583 583.811 383.721 571.834 403.425 556.539C423.38 540.989 439.003 522.638 450.359 501.475C461.654 480.426 467.317 457.441 467.317 432.433C467.317 417.992 465.384 403.957 461.522 390.312C457.651 376.634 452.106 363.74 444.884 351.618C437.665 339.5 428.895 328.406 418.562 318.332C408.23 308.258 396.736 299.604 384.068 292.365L378.074 288.94L383.197 284.314C391.146 277.134 398.201 269.054 404.366 260.065L404.393 260.025L404.421 259.986C410.864 250.965 416.273 241.437 420.651 231.396C425.051 221.04 428.409 210.571 430.732 199.988L430.742 199.945L430.752 199.902C433.326 189.091 434.605 178.443 434.605 167.95C434.605 146.397 429.738 126.314 420.011 107.628L419.992 107.592L419.974 107.555C410.454 88.5162 397.2 71.9027 380.156 57.6999L380.124 57.6737L380.093 57.6469C363.296 43.1756 343.615 31.7667 320.994 23.4466C298.446 15.1531 274.3 10.9886 248.52 10.9886ZM172.993 14.0615C196.714 5.33655 221.902 0.98877 248.52 0.98877C275.398 0.98877 300.719 5.3345 324.446 14.0615C348.088 22.7571 368.821 34.7427 386.59 50.0449C404.626 65.0811 418.747 82.7533 428.9 103.046C439.373 123.179 444.605 144.837 444.605 167.95C444.605 179.25 443.229 190.661 440.49 202.176C438.028 213.378 434.478 224.429 429.846 235.328L429.837 235.349L429.828 235.37C425.172 246.051 419.423 256.182 412.586 265.759C407.279 273.493 401.345 280.612 394.786 287.112C405.933 294.03 416.188 302.05 425.543 311.172C436.486 321.841 445.801 333.618 453.475 346.5C461.147 359.377 467.037 373.077 471.145 387.589C475.261 402.134 477.317 417.087 477.317 432.433C477.317 459.018 471.279 483.637 459.17 506.203C447.123 528.654 430.568 548.066 409.568 564.429L409.561 564.435C388.847 580.515 364.655 593.002 337.048 601.936C309.378 611.156 279.858 615.749 248.52 615.749C217.182 615.749 187.663 611.156 159.993 601.936C132.39 593.003 108.075 580.522 87.1054 564.454L87.0767 564.432L87.0483 564.41C66.3201 548.046 49.9088 528.639 37.8696 506.203C25.7609 483.637 19.7227 459.018 19.7227 432.433C19.7227 417.09 21.7778 402.141 25.8928 387.598C29.998 372.825 35.8876 358.987 43.5648 346.101L43.5847 346.067L43.6052 346.034C51.5299 333.191 60.9556 321.443 71.874 310.794C81.2282 301.444 91.5784 293.291 102.916 286.34C96.3679 280.048 90.3567 273.065 84.881 265.399L84.8532 265.36L84.8261 265.321C78.2823 255.778 72.5586 245.693 67.655 235.069L67.6327 235.02L67.6113 234.971C62.962 224.305 59.4033 213.358 56.939 202.132L56.9364 202.12L56.9337 202.107C54.4699 190.61 53.2324 179.222 53.2324 167.95C53.2324 144.846 58.328 123.192 68.5328 103.059L68.5388 103.047L68.5448 103.035C78.9557 82.762 93.065 65.0964 110.834 50.0572C128.607 34.7492 149.345 22.7594 172.993 14.0615ZM763.134 20.9616C732.046 20.9616 702.854 26.0533 675.522 36.204C648.665 46.2768 625.134 62.5483 604.903 85.1098C584.999 107.603 569.075 137.253 557.265 174.257L557.262 174.267C545.501 210.855 539.55 256.046 539.55 309.965C539.55 363.344 545.499 408.409 557.265 445.273C569.072 482.002 584.996 511.662 604.915 534.433C625.146 556.992 648.681 573.397 675.545 583.734C702.87 593.879 732.054 598.968 763.134 598.968C794.237 598.968 823.303 594.004 850.37 584.116C877.494 574.038 901.152 557.763 921.375 535.207C941.54 512.716 957.594 483.07 969.403 446.071C981.167 409.211 987.118 363.882 987.118 309.965C987.118 256.583 981.168 211.656 969.406 175.064C957.599 138.332 941.541 108.67 921.356 85.8975C901.129 63.0768 877.471 46.6772 850.354 36.6054L850.327 36.5954L850.3 36.585C823.252 26.1821 794.211 20.9616 763.134 20.9616ZM672.034 26.8324C700.55 16.241 730.929 10.9617 763.134 10.9617C795.344 10.9617 825.602 16.3758 853.864 27.242C882.585 37.9149 907.586 55.2868 928.84 79.2646C950.143 103.299 966.798 134.273 978.926 172.004C991.1 209.877 997.118 255.904 997.118 309.965C997.118 364.553 991.101 410.975 978.929 449.112C966.802 487.109 950.144 518.099 928.821 541.883C907.56 565.597 882.554 582.829 853.836 593.496L853.823 593.5L853.811 593.505C825.562 603.826 795.324 608.967 763.134 608.967C730.929 608.967 700.55 603.688 672.034 593.097L672.007 593.087L671.98 593.076C643.546 582.14 618.694 564.782 597.448 541.085L597.427 541.062L597.408 541.04C576.38 517.009 559.866 486.044 547.741 448.324L547.738 448.314C535.568 410.182 529.55 364.027 529.55 309.965C529.55 255.382 535.565 209.092 547.738 171.216C559.862 133.231 576.38 102.249 597.426 78.4694L597.437 78.4575L597.448 78.4455C618.701 54.7405 643.567 37.5075 672.019 26.8379L672.027 26.8351L672.034 26.8324ZM216.902 113.781C227.059 110.113 237.876 108.298 249.318 108.298C260.509 108.298 271.191 110.118 281.334 113.781C291.426 117.425 300.221 122.508 307.648 129.069C315.298 135.593 321.292 143.284 325.582 152.12C330.205 160.82 332.507 170.246 332.507 180.316C332.507 190.397 330.2 199.833 325.567 208.541C321.257 217.139 315.237 224.577 307.563 230.837C300.15 237.102 291.383 242.026 281.334 245.654C271.191 249.317 260.509 251.138 249.318 251.138C237.876 251.138 227.059 249.322 216.902 245.654C206.851 242.025 197.968 237.106 190.31 230.866L190.274 230.836L190.239 230.806C182.842 224.548 176.855 217.136 172.302 208.599L172.271 208.541L172.241 208.482C167.89 199.779 165.729 190.366 165.729 180.316C165.729 170.267 167.89 160.853 172.241 152.15L172.256 152.122L172.27 152.093C176.808 143.302 182.775 135.629 190.155 129.1L190.19 129.069L190.226 129.039C197.898 122.503 206.809 117.426 216.902 113.781ZM249.318 118.298C238.952 118.298 229.291 119.939 220.299 123.186C211.26 126.45 203.428 130.937 196.747 136.62C190.322 142.311 185.135 148.979 181.171 156.651C177.554 163.897 175.729 171.761 175.729 180.316C175.729 188.86 177.549 196.714 181.156 203.951C185.102 211.332 190.263 217.72 196.662 223.142C203.357 228.59 211.218 232.97 220.299 236.249C229.291 239.496 238.952 241.138 249.318 241.138C259.403 241.138 268.933 239.501 277.938 236.249C287.022 232.969 294.732 228.595 301.14 223.173L301.175 223.143L301.211 223.113C307.864 217.693 312.992 211.33 316.652 204.01L316.682 203.951L316.713 203.893C320.57 196.66 322.507 188.829 322.507 180.316C322.507 171.804 320.57 163.972 316.713 156.739L316.667 156.653L316.624 156.564C312.946 148.963 307.796 142.332 301.127 136.651L301.092 136.621L301.057 136.59C294.661 130.932 286.979 126.451 277.938 123.186C268.933 119.935 259.403 118.298 249.318 118.298ZM671.632 165.143C693.323 133.163 724.007 117.074 763.134 117.074C802.524 117.074 833.466 133.293 855.419 165.519C877.544 197.605 888.211 246.027 888.211 309.965C888.211 342.407 885.398 370.728 879.704 394.869C874.289 418.684 866.25 438.694 855.462 454.746C844.936 470.803 831.82 482.984 816.097 491.125L816.066 491.142L816.034 491.158C800.358 498.995 782.688 502.855 763.134 502.855C723.988 502.855 693.303 486.616 671.62 454.371C650.052 422.296 639.653 373.892 639.653 309.965C639.653 245.521 650.047 196.966 671.632 165.143ZM763.134 127.074C727.264 127.074 699.705 141.568 679.908 170.756C660.004 200.101 649.653 246.222 649.653 309.965C649.653 373.159 659.998 419.166 679.919 448.791C699.724 478.245 727.283 492.855 763.134 492.855C781.331 492.855 797.425 489.275 811.528 482.23C825.571 474.952 837.438 464.008 847.115 449.24L847.131 449.215L847.148 449.19C857.092 434.401 864.737 415.599 869.958 392.629L869.962 392.609L869.967 392.589C875.44 369.395 878.211 341.874 878.211 309.965C878.211 246.786 867.604 200.801 847.181 171.187L847.172 171.175L847.164 171.163C827.098 141.7 799.268 127.074 763.134 127.074ZM204.141 340.365C218.02 335.369 232.826 332.889 248.52 332.889C264.207 332.889 279.005 335.366 292.878 340.358C306.922 345.316 319.152 352.102 329.495 360.761C340.094 369.413 348.378 379.643 354.287 391.438C360.518 403.074 363.624 415.703 363.624 429.241C363.624 442.787 360.514 455.31 354.252 466.713C348.315 478.005 339.996 487.711 329.372 495.824C319.026 503.929 306.806 510.292 292.786 514.965L292.758 514.975L292.729 514.984C278.898 519.409 264.152 521.604 248.52 521.604C232.888 521.604 218.142 519.409 204.311 514.984L204.268 514.97L204.225 514.955C190.469 510.278 178.275 503.92 167.696 495.846L167.67 495.827L167.645 495.807C157.29 487.691 148.997 478.002 142.812 466.756L142.788 466.713L142.766 466.67C136.781 455.271 133.815 442.764 133.815 429.241C133.815 415.718 136.781 403.097 142.743 391.458L142.753 391.438L142.764 391.418C148.923 379.658 157.187 369.44 167.518 360.784L167.543 360.763L167.569 360.742C178.149 352.111 190.356 345.328 204.141 340.365ZM248.52 342.889C233.896 342.889 220.245 345.196 207.529 349.774C194.73 354.381 183.542 360.622 173.915 368.471C164.585 376.293 157.169 385.475 151.633 396.037C146.431 406.2 143.815 417.242 143.815 429.241C143.815 441.231 146.427 452.114 151.597 461.979C157.106 471.982 164.489 480.623 173.791 487.918C183.407 495.251 194.594 501.114 207.402 505.473C220.154 509.549 233.85 511.604 248.52 511.604C263.196 511.604 276.898 509.547 289.655 505.468C302.738 501.104 313.904 495.243 323.226 487.936L323.252 487.916L323.277 487.897C332.838 480.6 340.193 471.977 345.42 462.022L345.443 461.979L345.466 461.937C350.89 452.075 353.624 441.209 353.624 429.241C353.624 417.274 350.89 406.255 345.441 396.102L345.407 396.038L345.375 395.974C340.12 385.465 332.733 376.308 323.15 368.491L323.125 368.47L323.099 368.449C313.77 360.632 302.608 354.396 289.541 349.784L289.526 349.779L289.511 349.774C276.795 345.196 263.144 342.889 248.52 342.889Z" fill="white"/>
</svg>
